<svg xmlns="http://www.w3.org/2000/svg" xmlns:xlink="http://www.w3.org/1999/xlink" width="500" zoomAndPan="magnify" viewBox="0 0 375 374.999991" height="500" preserveAspectRatio="xMidYMid meet" version="1.0"><path fill="#010101" d="M 187.5 0 C 84.113281 0 0 84.113281 0 187.5 C 0 290.886719 84.113281 375 187.5 375 C 290.886719 375 375 290.886719 375 187.5 C 375 84.113281 290.886719 0 187.5 0 Z M 187.5 350 C 97.898438 350 25 277.101562 25 187.5 C 25 97.898438 97.898438 25 187.5 25 C 277.101562 25 350 97.898438 350 187.5 C 350 277.101562 277.101562 350 187.5 350 Z M 187.5 350 " fill-opacity="1" fill-rule="nonzero"/><path fill="#010101" d="M 168.195312 104.085938 C 163.3125 99.207031 155.398438 99.207031 150.515625 104.085938 C 145.632812 108.964844 145.632812 116.882812 150.515625 121.761719 L 216.253906 187.5 L 150.515625 253.242188 C 145.632812 258.121094 145.632812 266.039062 150.515625 270.914062 C 152.957031 273.355469 156.15625 274.578125 159.355469 274.578125 C 162.554688 274.578125 165.753906 273.355469 168.195312 270.914062 L 242.773438 196.335938 C 247.652344 191.457031 247.652344 183.542969 242.773438 178.660156 Z M 168.195312 104.085938 " fill-opacity="1" fill-rule="nonzero"/></svg>