<svg xmlns="http://www.w3.org/2000/svg" xmlns:xlink="http://www.w3.org/1999/xlink" width="500" zoomAndPan="magnify" viewBox="0 0 375 374.999991" height="500" preserveAspectRatio="xMidYMid meet" version="1.0"><path fill="#010101" d="M 187.5 0 C 290.886719 0 375 84.113281 375 187.5 C 375 290.886719 290.886719 375 187.5 375 C 84.113281 375 0 290.886719 0 187.5 C 0 84.113281 84.113281 0 187.5 0 Z M 187.5 350 C 277.101562 350 350 277.101562 350 187.5 C 350 97.898438 277.101562 25 187.5 25 C 97.898438 25 25 97.898438 25 187.5 C 25 277.101562 97.898438 350 187.5 350 Z M 187.5 350 " fill-opacity="1" fill-rule="nonzero"/><path fill="#010101" d="M 206.804688 104.085938 C 211.6875 99.207031 219.601562 99.207031 224.484375 104.085938 C 229.367188 108.964844 229.367188 116.882812 224.484375 121.761719 L 158.746094 187.5 L 224.484375 253.242188 C 229.367188 258.121094 229.367188 266.039062 224.484375 270.914062 C 222.042969 273.355469 218.84375 274.578125 215.644531 274.578125 C 212.445312 274.578125 209.246094 273.355469 206.804688 270.914062 L 132.226562 196.335938 C 127.347656 191.457031 127.347656 183.542969 132.226562 178.660156 Z M 206.804688 104.085938 " fill-opacity="1" fill-rule="nonzero"/></svg>