<svg class="shadow" xmlns="http://www.w3.org/2000/svg" width="90" viewBox="0 0 90 45" height="45" version="1.0"><defs><clipPath id="a"><path d="M 24.414062 1.914062 L 65.664062 1.914062 L 65.664062 43.164062 L 24.414062 43.164062 Z M 24.414062 1.914062"/></clipPath></defs><g clip-path="url(#a)"><path fill="#100F0D" d="M 60.851562 35.789062 L 60.851562 31.875 L 64.289062 29.910156 L 64.289062 33.824219 Z M 56.039062 29.910156 L 59.476562 31.875 L 59.476562 35.789062 L 56.039062 33.824219 Z M 50.191406 33.628906 L 45.726562 31.074219 L 45.726562 28.4375 L 50.191406 25.882812 C 50.40625 25.761719 50.539062 25.535156 50.539062 25.289062 L 50.539062 19.789062 C 50.539062 19.539062 50.40625 19.3125 50.191406 19.191406 L 45.726562 16.636719 L 45.726562 14 L 49.871094 11.628906 L 54.664062 14.023438 L 54.664062 16.351562 C 54.664062 16.597656 54.792969 16.824219 55.007812 16.945312 L 59.476562 19.5 L 59.476562 25.574219 L 55.007812 28.128906 C 54.792969 28.25 54.664062 28.476562 54.664062 28.726562 L 54.664062 33.84375 L 50.539062 36.421875 L 50.539062 34.226562 C 50.539062 33.976562 50.40625 33.75 50.191406 33.628906 Z M 45.726562 41.289062 L 45.726562 37.375 L 49.164062 35.410156 L 49.164062 39.324219 Z M 40.914062 35.410156 L 44.351562 37.375 L 44.351562 41.289062 L 40.914062 39.324219 Z M 35.414062 33.84375 L 35.414062 28.726562 C 35.414062 28.476562 35.28125 28.25 35.066406 28.128906 L 30.601562 25.574219 L 30.601562 19.5 L 35.066406 16.945312 C 35.28125 16.824219 35.414062 16.597656 35.414062 16.351562 L 35.414062 14.023438 L 40.203125 11.628906 L 44.351562 14 L 44.351562 16.636719 L 39.882812 19.191406 C 39.667969 19.3125 39.539062 19.539062 39.539062 19.789062 L 39.539062 25.289062 C 39.539062 25.535156 39.667969 25.761719 39.882812 25.882812 L 44.351562 28.4375 L 44.351562 31.074219 L 39.882812 33.628906 C 39.667969 33.75 39.539062 33.976562 39.539062 34.226562 L 39.539062 36.421875 Z M 30.601562 35.789062 L 30.601562 31.875 L 34.039062 29.910156 L 34.039062 33.824219 Z M 25.789062 29.910156 L 29.226562 31.875 L 29.226562 35.789062 L 25.789062 33.824219 Z M 29.914062 30.683594 L 26.484375 28.726562 L 29.914062 26.765625 L 33.339844 28.726562 Z M 25.789062 12.035156 L 29.226562 14 L 29.226562 17.914062 L 25.789062 15.949219 Z M 29.914062 8.890625 L 33.339844 10.851562 L 29.914062 12.808594 L 26.484375 10.851562 Z M 30.601562 14 L 34.039062 12.035156 L 34.039062 15.949219 L 30.601562 17.914062 Z M 45.039062 3.390625 L 48.464844 5.351562 L 45.039062 7.308594 L 41.609375 5.351562 Z M 45.726562 8.5 L 49.164062 6.535156 L 49.164062 10.449219 L 45.726562 12.414062 Z M 40.914062 6.535156 L 44.351562 8.5 L 44.351562 12.414062 L 40.914062 10.449219 Z M 45.039062 21.746094 L 41.609375 19.789062 L 45.039062 17.828125 L 48.464844 19.789062 Z M 45.726562 22.9375 L 49.164062 20.972656 L 49.164062 24.886719 L 45.726562 26.851562 Z M 40.914062 20.972656 L 44.351562 22.9375 L 44.351562 26.851562 L 40.914062 24.886719 Z M 45.039062 36.183594 L 41.609375 34.226562 L 45.039062 32.265625 L 48.464844 34.226562 Z M 60.164062 8.890625 L 63.589844 10.851562 L 60.164062 12.808594 L 56.734375 10.851562 Z M 56.039062 12.035156 L 59.476562 14 L 59.476562 17.914062 L 56.039062 15.949219 Z M 60.164062 30.683594 L 56.734375 28.726562 L 60.164062 26.765625 L 63.589844 28.726562 Z M 60.851562 17.914062 L 60.851562 14 L 64.289062 12.035156 L 64.289062 15.949219 Z M 65.316406 16.945312 C 65.53125 16.824219 65.664062 16.597656 65.664062 16.351562 L 65.664062 10.851562 C 65.664062 10.601562 65.53125 10.375 65.316406 10.253906 L 60.503906 7.503906 C 60.292969 7.382812 60.03125 7.382812 59.820312 7.503906 L 55.007812 10.253906 C 54.792969 10.375 54.664062 10.601562 54.664062 10.851562 L 54.664062 12.488281 L 50.539062 10.425781 L 50.539062 5.351562 C 50.539062 5.101562 50.40625 4.875 50.191406 4.753906 L 45.378906 2.003906 C 45.167969 1.882812 44.90625 1.882812 44.695312 2.003906 L 39.882812 4.753906 C 39.667969 4.875 39.539062 5.101562 39.539062 5.351562 L 39.539062 10.425781 L 35.414062 12.488281 L 35.414062 10.851562 C 35.414062 10.601562 35.28125 10.375 35.066406 10.253906 L 30.253906 7.503906 C 30.042969 7.382812 29.785156 7.382812 29.570312 7.503906 L 24.757812 10.253906 C 24.542969 10.375 24.414062 10.601562 24.414062 10.851562 L 24.414062 16.351562 C 24.414062 16.597656 24.542969 16.824219 24.757812 16.945312 L 29.226562 19.5 L 29.226562 25.574219 L 24.757812 28.128906 C 24.542969 28.25 24.414062 28.476562 24.414062 28.726562 L 24.414062 34.226562 C 24.414062 34.472656 24.542969 34.699219 24.757812 34.820312 L 29.570312 37.570312 C 29.675781 37.632812 29.792969 37.664062 29.914062 37.664062 C 30.03125 37.664062 30.148438 37.632812 30.253906 37.570312 L 34.707031 35.023438 L 39.539062 38.042969 L 39.539062 39.726562 C 39.539062 39.972656 39.667969 40.199219 39.882812 40.320312 L 44.695312 43.070312 C 44.800781 43.132812 44.917969 43.164062 45.039062 43.164062 C 45.15625 43.164062 45.273438 43.132812 45.378906 43.070312 L 50.191406 40.320312 C 50.40625 40.199219 50.539062 39.972656 50.539062 39.726562 L 50.539062 38.042969 L 55.367188 35.023438 L 59.820312 37.570312 C 59.925781 37.632812 60.042969 37.664062 60.164062 37.664062 C 60.28125 37.664062 60.398438 37.632812 60.503906 37.570312 L 65.316406 34.820312 C 65.53125 34.699219 65.664062 34.472656 65.664062 34.226562 L 65.664062 28.726562 C 65.664062 28.476562 65.53125 28.25 65.316406 28.128906 L 60.851562 25.574219 L 60.851562 19.5 L 65.316406 16.945312"/></g></svg>