<svg xmlns="http://www.w3.org/2000/svg" width="90" viewBox="0 0 90 45" height="45" version="1.0"><defs><clipPath id="a"><path d="M 33.128906 39.324219 L 56.460938 39.324219 L 56.460938 43.085938 L 33.128906 43.085938 Z M 33.128906 39.324219"/></clipPath><clipPath id="b"><path d="M 19.460938 1.839844 L 70.355469 1.839844 L 70.355469 36.835938 L 19.460938 36.835938 Z M 19.460938 1.839844"/></clipPath></defs><path d="M 42.199219 35.175781 L 47.628906 35.175781 C 47.960938 35.175781 48.246094 35.320312 48.367188 35.523438 L 52.203125 40.710938 L 52.207031 40.710938 C 52.410156 40.984375 52.257812 41.324219 51.871094 41.46875 C 51.75 41.511719 51.617188 41.53125 51.488281 41.53125 L 38.3125 41.53125 C 37.875 41.53125 37.519531 41.28125 37.519531 40.96875 C 37.519531 40.855469 37.566406 40.753906 37.644531 40.664062 L 41.484375 35.476562 L 42.1875 35.738281 L 41.480469 35.476562 C 41.625 35.28125 41.90625 35.171875 42.199219 35.175781"/><g clip-path="url(#a)"><path d="M 56.332031 39.351562 L 33.191406 39.351562 L 33.191406 43.085938 L 56.332031 43.085938 L 56.332031 39.351562"/></g><g clip-path="url(#b)"><path d="M 70.355469 35.972656 L 70.355469 2.632812 C 70.355469 2.195312 70 1.835938 69.558594 1.835938 L 20.257812 1.835938 C 19.816406 1.835938 19.460938 2.195312 19.460938 2.632812 L 19.460938 35.972656 C 19.460938 36.410156 19.816406 36.769531 20.257812 36.769531 L 69.558594 36.769531 C 70 36.769531 70.355469 36.410156 70.355469 35.972656 Z M 61.871094 32.769531 C 62.5 32.769531 63.007812 33.277344 63.007812 33.90625 C 63.007812 34.535156 62.5 35.042969 61.871094 35.042969 C 61.246094 35.042969 60.738281 34.535156 60.738281 33.90625 C 60.738281 33.277344 61.246094 32.769531 61.871094 32.769531 Z M 64.53125 31.042969 L 21.582031 31.042969 L 21.582031 3.960938 L 68.234375 3.960938 L 68.234375 31.042969 L 64.53125 31.042969" fill-rule="evenodd"/></g><path d="M 24.390625 8.230469 C 24.820312 8.230469 25.152344 8.382812 25.390625 8.691406 C 25.675781 9.050781 25.820312 9.648438 25.820312 10.484375 C 25.820312 11.320312 25.675781 11.917969 25.386719 12.285156 C 25.152344 12.585938 24.820312 12.734375 24.390625 12.734375 C 23.964844 12.734375 23.617188 12.570312 23.355469 12.238281 C 23.09375 11.910156 22.960938 11.324219 22.960938 10.476562 C 22.960938 9.644531 23.105469 9.046875 23.394531 8.683594 C 23.632812 8.382812 23.964844 8.230469 24.390625 8.230469 Z M 24.390625 8.933594 C 24.289062 8.933594 24.199219 8.964844 24.117188 9.03125 C 24.039062 9.097656 23.976562 9.214844 23.933594 9.382812 C 23.875 9.601562 23.84375 9.96875 23.84375 10.484375 C 23.84375 11.003906 23.871094 11.359375 23.921875 11.550781 C 23.976562 11.746094 24.039062 11.875 24.121094 11.9375 C 24.199219 12.003906 24.289062 12.035156 24.390625 12.035156 C 24.492188 12.035156 24.585938 12.003906 24.664062 11.9375 C 24.746094 11.871094 24.808594 11.753906 24.851562 11.585938 C 24.910156 11.371094 24.9375 11.003906 24.9375 10.484375 C 24.9375 9.96875 24.910156 9.613281 24.859375 9.417969 C 24.808594 9.226562 24.742188 9.097656 24.664062 9.03125 C 24.582031 8.964844 24.492188 8.933594 24.390625 8.933594 Z M 28.542969 12.660156 L 27.699219 12.660156 L 27.699219 9.472656 C 27.390625 9.765625 27.027344 9.976562 26.609375 10.113281 L 26.609375 9.347656 C 26.828125 9.277344 27.070312 9.140625 27.328125 8.9375 C 27.585938 8.734375 27.761719 8.5 27.859375 8.230469 L 28.542969 8.230469 Z M 31.230469 8.230469 C 31.65625 8.230469 31.992188 8.382812 32.230469 8.691406 C 32.515625 9.050781 32.660156 9.648438 32.660156 10.484375 C 32.660156 11.320312 32.515625 11.917969 32.226562 12.285156 C 31.988281 12.585938 31.65625 12.734375 31.230469 12.734375 C 30.804688 12.734375 30.457031 12.570312 30.195312 12.238281 C 29.933594 11.910156 29.800781 11.324219 29.800781 10.476562 C 29.800781 9.644531 29.945312 9.046875 30.234375 8.683594 C 30.472656 8.382812 30.804688 8.230469 31.230469 8.230469 Z M 31.230469 8.933594 C 31.128906 8.933594 31.039062 8.964844 30.957031 9.03125 C 30.878906 9.097656 30.816406 9.214844 30.769531 9.382812 C 30.714844 9.601562 30.683594 9.96875 30.683594 10.484375 C 30.683594 11.003906 30.710938 11.359375 30.761719 11.550781 C 30.8125 11.746094 30.878906 11.875 30.957031 11.9375 C 31.039062 12.003906 31.128906 12.035156 31.230469 12.035156 C 31.332031 12.035156 31.421875 12.003906 31.503906 11.9375 C 31.582031 11.871094 31.644531 11.753906 31.691406 11.585938 C 31.746094 11.371094 31.777344 11.003906 31.777344 10.484375 C 31.777344 9.96875 31.75 9.613281 31.699219 9.417969 C 31.648438 9.226562 31.582031 9.097656 31.503906 9.03125 C 31.421875 8.964844 31.332031 8.933594 31.230469 8.933594 Z M 35.382812 12.660156 L 34.539062 12.660156 L 34.539062 9.472656 C 34.230469 9.765625 33.867188 9.976562 33.449219 10.113281 L 33.449219 9.347656 C 33.667969 9.277344 33.910156 9.140625 34.167969 8.9375 C 34.425781 8.734375 34.601562 8.5 34.699219 8.230469 L 35.382812 8.230469 Z M 38.070312 8.230469 C 38.496094 8.230469 38.828125 8.382812 39.070312 8.691406 C 39.355469 9.050781 39.5 9.648438 39.5 10.484375 C 39.5 11.320312 39.355469 11.917969 39.066406 12.285156 C 38.828125 12.585938 38.496094 12.734375 38.070312 12.734375 C 37.640625 12.734375 37.296875 12.570312 37.035156 12.238281 C 36.773438 11.910156 36.640625 11.324219 36.640625 10.476562 C 36.640625 9.644531 36.785156 9.046875 37.074219 8.683594 C 37.3125 8.382812 37.640625 8.230469 38.070312 8.230469 Z M 38.070312 8.933594 C 37.96875 8.933594 37.875 8.964844 37.796875 9.03125 C 37.714844 9.097656 37.652344 9.214844 37.609375 9.382812 C 37.550781 9.601562 37.523438 9.96875 37.523438 10.484375 C 37.523438 11.003906 37.550781 11.359375 37.601562 11.550781 C 37.652344 11.746094 37.71875 11.875 37.796875 11.9375 C 37.878906 12.003906 37.96875 12.035156 38.070312 12.035156 C 38.171875 12.035156 38.261719 12.003906 38.34375 11.9375 C 38.421875 11.871094 38.484375 11.753906 38.527344 11.585938 C 38.585938 11.371094 38.617188 11.003906 38.617188 10.484375 C 38.617188 9.96875 38.589844 9.613281 38.539062 9.417969 C 38.484375 9.226562 38.421875 9.097656 38.339844 9.03125 C 38.261719 8.964844 38.171875 8.933594 38.070312 8.933594 Z M 42.222656 12.660156 L 41.378906 12.660156 L 41.378906 9.472656 C 41.070312 9.765625 40.707031 9.976562 40.289062 10.113281 L 40.289062 9.347656 C 40.507812 9.277344 40.746094 9.140625 41.003906 8.9375 C 41.261719 8.734375 41.441406 8.5 41.535156 8.230469 L 42.222656 8.230469 Z M 44.90625 8.230469 C 45.335938 8.230469 45.667969 8.382812 45.90625 8.691406 C 46.195312 9.050781 46.335938 9.648438 46.335938 10.484375 C 46.335938 11.320312 46.191406 11.917969 45.90625 12.285156 C 45.667969 12.585938 45.335938 12.734375 44.90625 12.734375 C 44.480469 12.734375 44.136719 12.570312 43.871094 12.238281 C 43.609375 11.910156 43.480469 11.324219 43.480469 10.476562 C 43.480469 9.644531 43.625 9.046875 43.910156 8.683594 C 44.148438 8.382812 44.480469 8.230469 44.90625 8.230469 Z M 44.90625 8.933594 C 44.804688 8.933594 44.714844 8.964844 44.636719 9.03125 C 44.554688 9.097656 44.492188 9.214844 44.449219 9.382812 C 44.390625 9.601562 44.359375 9.96875 44.359375 10.484375 C 44.359375 11.003906 44.386719 11.359375 44.441406 11.550781 C 44.492188 11.746094 44.558594 11.875 44.636719 11.9375 C 44.714844 12.003906 44.804688 12.035156 44.90625 12.035156 C 45.011719 12.035156 45.101562 12.003906 45.179688 11.9375 C 45.261719 11.871094 45.324219 11.753906 45.367188 11.585938 C 45.425781 11.371094 45.453125 11.003906 45.453125 10.484375 C 45.453125 9.96875 45.429688 9.613281 45.375 9.417969 C 45.324219 9.226562 45.257812 9.097656 45.179688 9.03125 C 45.101562 8.964844 45.011719 8.933594 44.90625 8.933594 Z M 49.058594 12.660156 L 48.214844 12.660156 L 48.214844 9.472656 C 47.90625 9.765625 47.546875 9.976562 47.125 10.113281 L 47.125 9.347656 C 47.347656 9.277344 47.585938 9.140625 47.84375 8.9375 C 48.101562 8.734375 48.28125 8.5 48.375 8.230469 L 49.058594 8.230469 Z M 51.746094 8.230469 C 52.171875 8.230469 52.507812 8.382812 52.746094 8.691406 C 53.03125 9.050781 53.175781 9.648438 53.175781 10.484375 C 53.175781 11.320312 53.03125 11.917969 52.742188 12.285156 C 52.503906 12.585938 52.171875 12.734375 51.746094 12.734375 C 51.320312 12.734375 50.972656 12.570312 50.710938 12.238281 C 50.449219 11.910156 50.316406 11.324219 50.316406 10.476562 C 50.316406 9.644531 50.460938 9.046875 50.75 8.683594 C 50.988281 8.382812 51.320312 8.230469 51.746094 8.230469 Z M 51.746094 8.933594 C 51.644531 8.933594 51.554688 8.964844 51.472656 9.03125 C 51.394531 9.097656 51.332031 9.214844 51.289062 9.382812 C 51.230469 9.601562 51.199219 9.96875 51.199219 10.484375 C 51.199219 11.003906 51.226562 11.359375 51.277344 11.550781 C 51.332031 11.746094 51.394531 11.875 51.476562 11.9375 C 51.554688 12.003906 51.644531 12.035156 51.746094 12.035156 C 51.847656 12.035156 51.941406 12.003906 52.019531 11.9375 C 52.101562 11.871094 52.160156 11.753906 52.207031 11.585938 C 52.265625 11.371094 52.292969 11.003906 52.292969 10.484375 C 52.292969 9.96875 52.265625 9.613281 52.214844 9.417969 C 52.164062 9.226562 52.097656 9.097656 52.019531 9.03125 C 51.9375 8.964844 51.847656 8.933594 51.746094 8.933594 Z M 55.898438 12.660156 L 55.054688 12.660156 L 55.054688 9.472656 C 54.746094 9.765625 54.382812 9.976562 53.964844 10.113281 L 53.964844 9.347656 C 54.183594 9.277344 54.425781 9.140625 54.683594 8.9375 C 54.941406 8.734375 55.117188 8.5 55.214844 8.230469 L 55.898438 8.230469 Z M 58.585938 8.230469 C 59.011719 8.230469 59.34375 8.382812 59.585938 8.691406 C 59.871094 9.050781 60.015625 9.648438 60.015625 10.484375 C 60.015625 11.320312 59.871094 11.917969 59.582031 12.285156 C 59.34375 12.585938 59.011719 12.734375 58.585938 12.734375 C 58.15625 12.734375 57.8125 12.570312 57.550781 12.238281 C 57.289062 11.910156 57.15625 11.324219 57.15625 10.476562 C 57.15625 9.644531 57.300781 9.046875 57.589844 8.683594 C 57.828125 8.382812 58.160156 8.230469 58.585938 8.230469 Z M 58.585938 8.933594 C 58.484375 8.933594 58.390625 8.964844 58.3125 9.03125 C 58.234375 9.097656 58.171875 9.214844 58.125 9.382812 C 58.070312 9.601562 58.039062 9.96875 58.039062 10.484375 C 58.039062 11.003906 58.066406 11.359375 58.117188 11.550781 C 58.167969 11.746094 58.234375 11.875 58.3125 11.9375 C 58.394531 12.003906 58.484375 12.035156 58.585938 12.035156 C 58.6875 12.035156 58.777344 12.003906 58.859375 11.9375 C 58.9375 11.871094 59 11.753906 59.046875 11.585938 C 59.101562 11.371094 59.132812 11.003906 59.132812 10.484375 C 59.132812 9.96875 59.105469 9.613281 59.054688 9.417969 C 59.003906 9.226562 58.9375 9.097656 58.859375 9.03125 C 58.777344 8.964844 58.6875 8.933594 58.585938 8.933594 Z M 62.738281 12.660156 L 61.894531 12.660156 L 61.894531 9.472656 C 61.585938 9.765625 61.222656 9.976562 60.804688 10.113281 L 60.804688 9.347656 C 61.023438 9.277344 61.265625 9.140625 61.523438 8.9375 C 61.78125 8.734375 61.957031 8.5 62.050781 8.230469 L 62.738281 8.230469 Z M 65.421875 8.230469 C 65.851562 8.230469 66.183594 8.382812 66.421875 8.691406 C 66.710938 9.050781 66.851562 9.648438 66.851562 10.484375 C 66.851562 11.320312 66.707031 11.917969 66.421875 12.285156 C 66.183594 12.585938 65.851562 12.734375 65.421875 12.734375 C 64.996094 12.734375 64.652344 12.570312 64.390625 12.238281 C 64.125 11.910156 63.996094 11.324219 63.996094 10.476562 C 63.996094 9.644531 64.140625 9.046875 64.429688 8.683594 C 64.664062 8.382812 64.996094 8.230469 65.421875 8.230469 Z M 65.421875 8.933594 C 65.324219 8.933594 65.230469 8.964844 65.152344 9.03125 C 65.070312 9.097656 65.007812 9.214844 64.964844 9.382812 C 64.90625 9.601562 64.878906 9.96875 64.878906 10.484375 C 64.878906 11.003906 64.90625 11.359375 64.957031 11.550781 C 65.007812 11.746094 65.074219 11.875 65.152344 11.9375 C 65.230469 12.003906 65.324219 12.035156 65.421875 12.035156 C 65.527344 12.035156 65.617188 12.003906 65.695312 11.9375 C 65.777344 11.871094 65.839844 11.753906 65.882812 11.585938 C 66.003906 11.140625 66.011719 9.863281 65.894531 9.417969 C 65.839844 9.226562 65.777344 9.097656 65.695312 9.03125 C 65.617188 8.964844 65.527344 8.933594 65.421875 8.933594"/><path d="M 24.390625 15.25 C 24.820312 15.25 25.152344 15.402344 25.390625 15.710938 C 25.675781 16.070312 25.820312 16.667969 25.820312 17.503906 C 25.820312 18.339844 25.675781 18.9375 25.386719 19.304688 C 25.152344 19.605469 24.820312 19.753906 24.390625 19.753906 C 23.964844 19.753906 23.617188 19.589844 23.355469 19.257812 C 23.09375 18.929688 22.960938 18.34375 22.960938 17.496094 C 22.960938 16.664062 23.105469 16.066406 23.394531 15.703125 C 23.632812 15.402344 23.964844 15.25 24.390625 15.25 Z M 24.390625 15.953125 C 24.289062 15.953125 24.199219 15.984375 24.117188 16.050781 C 24.039062 16.117188 23.976562 16.234375 23.933594 16.402344 C 23.875 16.621094 23.84375 16.988281 23.84375 17.503906 C 23.84375 18.023438 23.871094 18.378906 23.921875 18.570312 C 23.976562 18.765625 24.039062 18.894531 24.121094 18.957031 C 24.199219 19.023438 24.289062 19.054688 24.390625 19.054688 C 24.492188 19.054688 24.585938 19.023438 24.664062 18.957031 C 24.746094 18.890625 24.808594 18.773438 24.851562 18.605469 C 24.910156 18.390625 24.9375 18.023438 24.9375 17.503906 C 24.9375 16.988281 24.910156 16.632812 24.859375 16.4375 C 24.808594 16.246094 24.742188 16.117188 24.664062 16.050781 C 24.582031 15.984375 24.492188 15.953125 24.390625 15.953125 Z M 28.542969 19.679688 L 27.699219 19.679688 L 27.699219 16.492188 C 27.390625 16.78125 27.027344 16.996094 26.609375 17.132812 L 26.609375 16.367188 C 26.828125 16.296875 27.070312 16.160156 27.328125 15.957031 C 27.585938 15.753906 27.761719 15.519531 27.859375 15.25 L 28.542969 15.25 Z M 31.230469 15.25 C 31.65625 15.25 31.992188 15.402344 32.230469 15.710938 C 32.515625 16.070312 32.660156 16.667969 32.660156 17.503906 C 32.660156 18.339844 32.515625 18.9375 32.226562 19.304688 C 31.988281 19.605469 31.65625 19.753906 31.230469 19.753906 C 30.804688 19.753906 30.457031 19.589844 30.195312 19.257812 C 29.933594 18.929688 29.800781 18.34375 29.800781 17.496094 C 29.800781 16.664062 29.945312 16.066406 30.234375 15.703125 C 30.472656 15.402344 30.804688 15.25 31.230469 15.25 Z M 31.230469 15.953125 C 31.128906 15.953125 31.039062 15.984375 30.957031 16.050781 C 30.878906 16.117188 30.816406 16.234375 30.769531 16.402344 C 30.714844 16.621094 30.683594 16.988281 30.683594 17.503906 C 30.683594 18.023438 30.710938 18.378906 30.761719 18.570312 C 30.8125 18.765625 30.878906 18.894531 30.957031 18.957031 C 31.039062 19.023438 31.128906 19.054688 31.230469 19.054688 C 31.332031 19.054688 31.421875 19.023438 31.503906 18.957031 C 31.582031 18.890625 31.644531 18.773438 31.691406 18.605469 C 31.746094 18.390625 31.777344 18.023438 31.777344 17.503906 C 31.777344 16.988281 31.75 16.632812 31.699219 16.4375 C 31.648438 16.246094 31.582031 16.117188 31.503906 16.050781 C 31.421875 15.984375 31.332031 15.953125 31.230469 15.953125 Z M 35.382812 19.679688 L 34.539062 19.679688 L 34.539062 16.492188 C 34.230469 16.78125 33.867188 16.996094 33.449219 17.132812 L 33.449219 16.367188 C 33.667969 16.296875 33.910156 16.160156 34.167969 15.957031 C 34.425781 15.753906 34.601562 15.519531 34.699219 15.25 L 35.382812 15.25 Z M 38.070312 15.25 C 38.496094 15.25 38.828125 15.402344 39.070312 15.710938 C 39.355469 16.070312 39.5 16.667969 39.5 17.503906 C 39.5 18.339844 39.355469 18.9375 39.066406 19.304688 C 38.828125 19.605469 38.496094 19.753906 38.070312 19.753906 C 37.640625 19.753906 37.296875 19.589844 37.035156 19.257812 C 36.773438 18.929688 36.640625 18.34375 36.640625 17.496094 C 36.640625 16.664062 36.785156 16.066406 37.074219 15.703125 C 37.3125 15.402344 37.640625 15.25 38.070312 15.25 Z M 38.070312 15.953125 C 37.96875 15.953125 37.875 15.984375 37.796875 16.050781 C 37.714844 16.117188 37.652344 16.234375 37.609375 16.402344 C 37.550781 16.621094 37.523438 16.988281 37.523438 17.503906 C 37.523438 18.023438 37.550781 18.378906 37.601562 18.570312 C 37.652344 18.765625 37.71875 18.894531 37.796875 18.957031 C 37.878906 19.023438 37.96875 19.054688 38.070312 19.054688 C 38.171875 19.054688 38.261719 19.023438 38.34375 18.957031 C 38.421875 18.890625 38.484375 18.773438 38.527344 18.605469 C 38.585938 18.390625 38.617188 18.023438 38.617188 17.503906 C 38.617188 16.988281 38.589844 16.632812 38.539062 16.4375 C 38.484375 16.246094 38.421875 16.117188 38.339844 16.050781 C 38.261719 15.984375 38.171875 15.953125 38.070312 15.953125 Z M 42.222656 19.679688 L 41.378906 19.679688 L 41.378906 16.492188 C 41.070312 16.78125 40.707031 16.996094 40.289062 17.132812 L 40.289062 16.367188 C 40.507812 16.296875 40.746094 16.160156 41.003906 15.957031 C 41.261719 15.753906 41.441406 15.519531 41.535156 15.25 L 42.222656 15.25 Z M 44.90625 15.25 C 45.335938 15.25 45.667969 15.402344 45.90625 15.710938 C 46.195312 16.070312 46.335938 16.667969 46.335938 17.503906 C 46.335938 18.339844 46.191406 18.9375 45.90625 19.304688 C 45.667969 19.605469 45.335938 19.753906 44.90625 19.753906 C 44.480469 19.753906 44.136719 19.589844 43.871094 19.257812 C 43.609375 18.929688 43.480469 18.34375 43.480469 17.496094 C 43.480469 16.664062 43.625 16.066406 43.910156 15.703125 C 44.148438 15.402344 44.480469 15.25 44.90625 15.25 Z M 44.90625 15.953125 C 44.804688 15.953125 44.714844 15.984375 44.636719 16.050781 C 44.554688 16.117188 44.492188 16.234375 44.449219 16.402344 C 44.390625 16.621094 44.359375 16.988281 44.359375 17.503906 C 44.359375 18.023438 44.386719 18.378906 44.441406 18.570312 C 44.492188 18.765625 44.558594 18.894531 44.636719 18.957031 C 44.714844 19.023438 44.804688 19.054688 44.90625 19.054688 C 45.011719 19.054688 45.101562 19.023438 45.179688 18.957031 C 45.261719 18.890625 45.324219 18.773438 45.367188 18.605469 C 45.425781 18.390625 45.453125 18.023438 45.453125 17.503906 C 45.453125 16.988281 45.429688 16.632812 45.375 16.4375 C 45.324219 16.246094 45.257812 16.117188 45.179688 16.050781 C 45.101562 15.984375 45.011719 15.953125 44.90625 15.953125 Z M 49.058594 19.679688 L 48.214844 19.679688 L 48.214844 16.492188 C 47.90625 16.78125 47.546875 16.996094 47.125 17.132812 L 47.125 16.367188 C 47.347656 16.296875 47.585938 16.160156 47.84375 15.957031 C 48.101562 15.753906 48.28125 15.519531 48.375 15.25 L 49.058594 15.25 Z M 51.746094 15.25 C 52.171875 15.25 52.507812 15.402344 52.746094 15.710938 C 53.03125 16.070312 53.175781 16.667969 53.175781 17.503906 C 53.175781 18.339844 53.03125 18.9375 52.742188 19.304688 C 52.503906 19.605469 52.171875 19.753906 51.746094 19.753906 C 51.320312 19.753906 50.972656 19.589844 50.710938 19.257812 C 50.449219 18.929688 50.316406 18.34375 50.316406 17.496094 C 50.316406 16.664062 50.460938 16.066406 50.75 15.703125 C 50.988281 15.402344 51.320312 15.25 51.746094 15.25 Z M 51.746094 15.953125 C 51.644531 15.953125 51.554688 15.984375 51.472656 16.050781 C 51.394531 16.117188 51.332031 16.234375 51.289062 16.402344 C 51.230469 16.621094 51.199219 16.988281 51.199219 17.503906 C 51.199219 18.023438 51.226562 18.378906 51.277344 18.570312 C 51.332031 18.765625 51.394531 18.894531 51.476562 18.957031 C 51.554688 19.023438 51.644531 19.054688 51.746094 19.054688 C 51.847656 19.054688 51.941406 19.023438 52.019531 18.957031 C 52.101562 18.890625 52.160156 18.773438 52.207031 18.605469 C 52.265625 18.390625 52.292969 18.023438 52.292969 17.503906 C 52.292969 16.988281 52.265625 16.632812 52.214844 16.4375 C 52.164062 16.246094 52.097656 16.117188 52.019531 16.050781 C 51.9375 15.984375 51.847656 15.953125 51.746094 15.953125 Z M 55.898438 19.679688 L 55.054688 19.679688 L 55.054688 16.492188 C 54.746094 16.78125 54.382812 16.996094 53.964844 17.132812 L 53.964844 16.367188 C 54.183594 16.296875 54.425781 16.160156 54.683594 15.957031 C 54.941406 15.753906 55.117188 15.519531 55.214844 15.25 L 55.898438 15.25 Z M 58.585938 15.25 C 59.011719 15.25 59.34375 15.402344 59.585938 15.710938 C 59.871094 16.070312 60.015625 16.667969 60.015625 17.503906 C 60.015625 18.339844 59.871094 18.9375 59.582031 19.304688 C 59.34375 19.605469 59.011719 19.753906 58.585938 19.753906 C 58.15625 19.753906 57.8125 19.589844 57.550781 19.257812 C 57.289062 18.929688 57.15625 18.34375 57.15625 17.496094 C 57.15625 16.664062 57.300781 16.066406 57.589844 15.703125 C 57.828125 15.402344 58.160156 15.25 58.585938 15.25 Z M 58.585938 15.953125 C 58.484375 15.953125 58.390625 15.984375 58.3125 16.050781 C 58.234375 16.117188 58.171875 16.234375 58.125 16.402344 C 58.070312 16.621094 58.039062 16.988281 58.039062 17.503906 C 58.039062 18.023438 58.066406 18.378906 58.117188 18.570312 C 58.167969 18.765625 58.234375 18.894531 58.3125 18.957031 C 58.394531 19.023438 58.484375 19.054688 58.585938 19.054688 C 58.6875 19.054688 58.777344 19.023438 58.859375 18.957031 C 58.9375 18.890625 59 18.773438 59.046875 18.605469 C 59.101562 18.390625 59.132812 18.023438 59.132812 17.503906 C 59.132812 16.988281 59.105469 16.632812 59.054688 16.4375 C 59.003906 16.246094 58.9375 16.117188 58.859375 16.050781 C 58.777344 15.984375 58.6875 15.953125 58.585938 15.953125 Z M 62.738281 19.679688 L 61.894531 19.679688 L 61.894531 16.492188 C 61.585938 16.78125 61.222656 16.996094 60.804688 17.132812 L 60.804688 16.367188 C 61.023438 16.296875 61.265625 16.160156 61.523438 15.957031 C 61.78125 15.753906 61.957031 15.519531 62.050781 15.25 L 62.738281 15.25 Z M 65.421875 15.25 C 65.851562 15.25 66.183594 15.402344 66.421875 15.710938 C 66.710938 16.070312 66.851562 16.667969 66.851562 17.503906 C 66.851562 18.339844 66.707031 18.9375 66.421875 19.304688 C 66.183594 19.605469 65.851562 19.753906 65.421875 19.753906 C 64.996094 19.753906 64.652344 19.589844 64.390625 19.257812 C 64.125 18.929688 63.996094 18.34375 63.996094 17.496094 C 63.996094 16.664062 64.140625 16.066406 64.429688 15.703125 C 64.664062 15.402344 64.996094 15.25 65.421875 15.25 Z M 65.421875 15.953125 C 65.324219 15.953125 65.230469 15.984375 65.152344 16.050781 C 65.070312 16.117188 65.007812 16.234375 64.964844 16.402344 C 64.90625 16.621094 64.878906 16.988281 64.878906 17.503906 C 64.878906 18.023438 64.90625 18.378906 64.957031 18.570312 C 65.007812 18.765625 65.074219 18.894531 65.152344 18.957031 C 65.230469 19.023438 65.324219 19.054688 65.421875 19.054688 C 65.527344 19.054688 65.617188 19.023438 65.695312 18.957031 C 65.777344 18.890625 65.839844 18.773438 65.882812 18.605469 C 66.003906 18.160156 66.011719 16.882812 65.894531 16.4375 C 65.839844 16.246094 65.777344 16.117188 65.695312 16.050781 C 65.617188 15.984375 65.527344 15.953125 65.421875 15.953125"/><path d="M 24.390625 22.273438 C 24.820312 22.273438 25.152344 22.425781 25.390625 22.730469 C 25.675781 23.089844 25.820312 23.6875 25.820312 24.523438 C 25.820312 25.359375 25.675781 25.957031 25.386719 26.324219 C 25.152344 26.625 24.820312 26.773438 24.390625 26.773438 C 23.964844 26.773438 23.617188 26.609375 23.355469 26.277344 C 23.09375 25.949219 22.960938 25.363281 22.960938 24.515625 C 22.960938 23.683594 23.105469 23.085938 23.394531 22.722656 C 23.632812 22.421875 23.964844 22.273438 24.390625 22.273438 Z M 24.390625 22.972656 C 24.289062 22.972656 24.199219 23.003906 24.117188 23.070312 C 24.039062 23.136719 23.976562 23.253906 23.933594 23.421875 C 23.875 23.640625 23.84375 24.007812 23.84375 24.523438 C 23.84375 25.042969 23.871094 25.398438 23.921875 25.589844 C 23.976562 25.785156 24.039062 25.914062 24.121094 25.976562 C 24.199219 26.042969 24.289062 26.074219 24.390625 26.074219 C 24.492188 26.074219 24.585938 26.042969 24.664062 25.976562 C 24.746094 25.910156 24.808594 25.792969 24.851562 25.625 C 24.910156 25.410156 24.9375 25.042969 24.9375 24.523438 C 24.9375 24.007812 24.910156 23.652344 24.859375 23.457031 C 24.808594 23.265625 24.742188 23.136719 24.664062 23.070312 C 24.582031 23.003906 24.492188 22.972656 24.390625 22.972656 Z M 28.542969 26.699219 L 27.699219 26.699219 L 27.699219 23.511719 C 27.390625 23.804688 27.027344 24.015625 26.609375 24.152344 L 26.609375 23.386719 C 26.828125 23.316406 27.070312 23.179688 27.328125 22.976562 C 27.585938 22.773438 27.761719 22.539062 27.859375 22.273438 L 28.542969 22.273438 Z M 31.230469 22.273438 C 31.65625 22.273438 31.992188 22.425781 32.230469 22.730469 C 32.515625 23.089844 32.660156 23.6875 32.660156 24.523438 C 32.660156 25.359375 32.515625 25.957031 32.226562 26.324219 C 31.988281 26.625 31.65625 26.773438 31.230469 26.773438 C 30.804688 26.773438 30.457031 26.609375 30.195312 26.277344 C 29.933594 25.949219 29.800781 25.363281 29.800781 24.515625 C 29.800781 23.683594 29.945312 23.085938 30.234375 22.722656 C 30.472656 22.421875 30.804688 22.273438 31.230469 22.273438 Z M 31.230469 22.972656 C 31.128906 22.972656 31.039062 23.003906 30.957031 23.070312 C 30.878906 23.136719 30.816406 23.253906 30.769531 23.421875 C 30.714844 23.640625 30.683594 24.007812 30.683594 24.523438 C 30.683594 25.042969 30.710938 25.398438 30.761719 25.589844 C 30.8125 25.785156 30.878906 25.914062 30.957031 25.976562 C 31.039062 26.042969 31.128906 26.074219 31.230469 26.074219 C 31.332031 26.074219 31.421875 26.042969 31.503906 25.976562 C 31.582031 25.910156 31.644531 25.792969 31.691406 25.625 C 31.746094 25.410156 31.777344 25.042969 31.777344 24.523438 C 31.777344 24.007812 31.75 23.652344 31.699219 23.457031 C 31.648438 23.265625 31.582031 23.136719 31.503906 23.070312 C 31.421875 23.003906 31.332031 22.972656 31.230469 22.972656 Z M 35.382812 26.699219 L 34.539062 26.699219 L 34.539062 23.511719 C 34.230469 23.804688 33.867188 24.015625 33.449219 24.152344 L 33.449219 23.386719 C 33.667969 23.316406 33.910156 23.179688 34.167969 22.976562 C 34.425781 22.773438 34.601562 22.539062 34.699219 22.273438 L 35.382812 22.273438 Z M 38.070312 22.273438 C 38.496094 22.273438 38.828125 22.425781 39.070312 22.730469 C 39.355469 23.089844 39.5 23.6875 39.5 24.523438 C 39.5 25.359375 39.355469 25.957031 39.066406 26.324219 C 38.828125 26.625 38.496094 26.773438 38.070312 26.773438 C 37.640625 26.773438 37.296875 26.609375 37.035156 26.277344 C 36.773438 25.949219 36.640625 25.363281 36.640625 24.515625 C 36.640625 23.683594 36.785156 23.085938 37.074219 22.722656 C 37.3125 22.421875 37.640625 22.273438 38.070312 22.273438 Z M 38.070312 22.972656 C 37.96875 22.972656 37.875 23.003906 37.796875 23.070312 C 37.714844 23.136719 37.652344 23.253906 37.609375 23.421875 C 37.550781 23.640625 37.523438 24.007812 37.523438 24.523438 C 37.523438 25.042969 37.550781 25.398438 37.601562 25.589844 C 37.652344 25.785156 37.71875 25.914062 37.796875 25.976562 C 37.878906 26.042969 37.96875 26.074219 38.070312 26.074219 C 38.171875 26.074219 38.261719 26.042969 38.34375 25.976562 C 38.421875 25.910156 38.484375 25.792969 38.527344 25.625 C 38.585938 25.410156 38.617188 25.042969 38.617188 24.523438 C 38.617188 24.007812 38.589844 23.652344 38.539062 23.457031 C 38.484375 23.265625 38.421875 23.136719 38.339844 23.070312 C 38.261719 23.003906 38.171875 22.972656 38.070312 22.972656 Z M 42.222656 26.699219 L 41.378906 26.699219 L 41.378906 23.511719 C 41.070312 23.804688 40.707031 24.015625 40.289062 24.152344 L 40.289062 23.386719 C 40.507812 23.316406 40.746094 23.179688 41.003906 22.976562 C 41.261719 22.773438 41.441406 22.539062 41.535156 22.273438 L 42.222656 22.273438 Z M 44.90625 22.273438 C 45.335938 22.273438 45.667969 22.425781 45.90625 22.730469 C 46.195312 23.089844 46.335938 23.6875 46.335938 24.523438 C 46.335938 25.359375 46.191406 25.957031 45.90625 26.324219 C 45.667969 26.625 45.335938 26.773438 44.90625 26.773438 C 44.480469 26.773438 44.136719 26.609375 43.871094 26.277344 C 43.609375 25.949219 43.480469 25.363281 43.480469 24.515625 C 43.480469 23.683594 43.625 23.085938 43.910156 22.722656 C 44.148438 22.421875 44.480469 22.273438 44.90625 22.273438 Z M 44.90625 22.972656 C 44.804688 22.972656 44.714844 23.003906 44.636719 23.070312 C 44.554688 23.136719 44.492188 23.253906 44.449219 23.421875 C 44.390625 23.640625 44.359375 24.007812 44.359375 24.523438 C 44.359375 25.042969 44.386719 25.398438 44.441406 25.589844 C 44.492188 25.785156 44.558594 25.914062 44.636719 25.976562 C 44.714844 26.042969 44.804688 26.074219 44.90625 26.074219 C 45.011719 26.074219 45.101562 26.042969 45.179688 25.976562 C 45.261719 25.910156 45.324219 25.792969 45.367188 25.625 C 45.425781 25.410156 45.453125 25.042969 45.453125 24.523438 C 45.453125 24.007812 45.429688 23.652344 45.375 23.457031 C 45.324219 23.265625 45.257812 23.136719 45.179688 23.070312 C 45.101562 23.003906 45.011719 22.972656 44.90625 22.972656 Z M 49.058594 26.699219 L 48.214844 26.699219 L 48.214844 23.511719 C 47.90625 23.804688 47.546875 24.015625 47.125 24.152344 L 47.125 23.386719 C 47.347656 23.316406 47.585938 23.179688 47.84375 22.976562 C 48.101562 22.773438 48.28125 22.539062 48.375 22.273438 L 49.058594 22.273438 Z M 51.746094 22.273438 C 52.171875 22.273438 52.507812 22.425781 52.746094 22.730469 C 53.03125 23.089844 53.175781 23.6875 53.175781 24.523438 C 53.175781 25.359375 53.03125 25.957031 52.742188 26.324219 C 52.503906 26.625 52.171875 26.773438 51.746094 26.773438 C 51.320312 26.773438 50.972656 26.609375 50.710938 26.277344 C 50.449219 25.949219 50.316406 25.363281 50.316406 24.515625 C 50.316406 23.683594 50.460938 23.085938 50.75 22.722656 C 50.988281 22.421875 51.320312 22.273438 51.746094 22.273438 Z M 51.746094 22.972656 C 51.644531 22.972656 51.554688 23.003906 51.472656 23.070312 C 51.394531 23.136719 51.332031 23.253906 51.289062 23.421875 C 51.230469 23.640625 51.199219 24.007812 51.199219 24.523438 C 51.199219 25.042969 51.226562 25.398438 51.277344 25.589844 C 51.332031 25.785156 51.394531 25.914062 51.476562 25.976562 C 51.554688 26.042969 51.644531 26.074219 51.746094 26.074219 C 51.847656 26.074219 51.941406 26.042969 52.019531 25.976562 C 52.101562 25.910156 52.160156 25.792969 52.207031 25.625 C 52.265625 25.410156 52.292969 25.042969 52.292969 24.523438 C 52.292969 24.007812 52.265625 23.652344 52.214844 23.457031 C 52.164062 23.265625 52.097656 23.136719 52.019531 23.070312 C 51.9375 23.003906 51.847656 22.972656 51.746094 22.972656 Z M 55.898438 26.699219 L 55.054688 26.699219 L 55.054688 23.511719 C 54.746094 23.804688 54.382812 24.015625 53.964844 24.152344 L 53.964844 23.386719 C 54.183594 23.316406 54.425781 23.179688 54.683594 22.976562 C 54.941406 22.773438 55.117188 22.539062 55.214844 22.273438 L 55.898438 22.273438 Z M 58.585938 22.273438 C 59.011719 22.273438 59.34375 22.425781 59.585938 22.730469 C 59.871094 23.089844 60.015625 23.6875 60.015625 24.523438 C 60.015625 25.359375 59.871094 25.957031 59.582031 26.324219 C 59.34375 26.625 59.011719 26.773438 58.585938 26.773438 C 58.15625 26.773438 57.8125 26.609375 57.550781 26.277344 C 57.289062 25.949219 57.15625 25.363281 57.15625 24.515625 C 57.15625 23.683594 57.300781 23.085938 57.589844 22.722656 C 57.828125 22.421875 58.160156 22.273438 58.585938 22.273438 Z M 58.585938 22.972656 C 58.484375 22.972656 58.390625 23.003906 58.3125 23.070312 C 58.234375 23.136719 58.171875 23.253906 58.125 23.421875 C 58.070312 23.640625 58.039062 24.007812 58.039062 24.523438 C 58.039062 25.042969 58.066406 25.398438 58.117188 25.589844 C 58.167969 25.785156 58.234375 25.914062 58.3125 25.976562 C 58.394531 26.042969 58.484375 26.074219 58.585938 26.074219 C 58.6875 26.074219 58.777344 26.042969 58.859375 25.976562 C 58.9375 25.910156 59 25.792969 59.046875 25.625 C 59.101562 25.410156 59.132812 25.042969 59.132812 24.523438 C 59.132812 24.007812 59.105469 23.652344 59.054688 23.457031 C 59.003906 23.265625 58.9375 23.136719 58.859375 23.070312 C 58.777344 23.003906 58.6875 22.972656 58.585938 22.972656 Z M 62.738281 26.699219 L 61.894531 26.699219 L 61.894531 23.511719 C 61.585938 23.804688 61.222656 24.015625 60.804688 24.152344 L 60.804688 23.386719 C 61.023438 23.316406 61.265625 23.179688 61.523438 22.976562 C 61.78125 22.773438 61.957031 22.539062 62.050781 22.273438 L 62.738281 22.273438 Z M 65.421875 22.273438 C 65.851562 22.273438 66.183594 22.425781 66.421875 22.730469 C 66.710938 23.089844 66.851562 23.6875 66.851562 24.523438 C 66.851562 25.359375 66.707031 25.957031 66.421875 26.324219 C 66.183594 26.625 65.851562 26.773438 65.421875 26.773438 C 64.996094 26.773438 64.652344 26.609375 64.390625 26.277344 C 64.125 25.949219 63.996094 25.363281 63.996094 24.515625 C 63.996094 23.683594 64.140625 23.085938 64.429688 22.722656 C 64.664062 22.421875 64.996094 22.273438 65.421875 22.273438 Z M 65.421875 22.972656 C 65.324219 22.972656 65.230469 23.003906 65.152344 23.070312 C 65.070312 23.136719 65.007812 23.253906 64.964844 23.421875 C 64.90625 23.640625 64.878906 24.007812 64.878906 24.523438 C 64.878906 25.042969 64.90625 25.398438 64.957031 25.589844 C 65.007812 25.785156 65.074219 25.914062 65.152344 25.976562 C 65.230469 26.042969 65.324219 26.074219 65.421875 26.074219 C 65.527344 26.074219 65.617188 26.042969 65.695312 25.976562 C 65.777344 25.910156 65.839844 25.792969 65.882812 25.625 C 66.003906 25.179688 66.011719 23.902344 65.894531 23.457031 C 65.839844 23.265625 65.777344 23.136719 65.695312 23.070312 C 65.617188 23.003906 65.527344 22.972656 65.421875 22.972656"/></svg>