<svg xmlns="http://www.w3.org/2000/svg" width="90" viewBox="0 0 90 45" height="45" version="1.0"><defs><clipPath id="a"><path d="M 22.601562 2.339844 L 67.601562 2.339844 L 67.601562 42.839844 L 22.601562 42.839844 Z M 22.601562 2.339844"/></clipPath></defs><path fill="#100F0D" d="M 44.351562 36.839844 L 45.851562 36.839844 L 45.851562 35.339844 L 44.351562 35.339844 L 44.351562 36.839844"/><g clip-path="url(#a)"><path fill="#100F0D" d="M 24.101562 38.339844 L 38.039062 38.339844 L 39.320312 39.621094 C 39.460938 39.761719 39.652344 39.839844 39.851562 39.839844 L 50.351562 39.839844 C 50.550781 39.839844 50.742188 39.761719 50.882812 39.621094 L 52.160156 38.339844 L 66.101562 38.339844 L 66.101562 39.839844 C 66.101562 40.664062 65.425781 41.339844 64.601562 41.339844 L 25.601562 41.339844 C 24.773438 41.339844 24.101562 40.664062 24.101562 39.839844 Z M 25.601562 5.339844 C 25.601562 4.515625 26.273438 3.839844 27.101562 3.839844 L 63.101562 3.839844 C 63.925781 3.839844 64.601562 4.515625 64.601562 5.339844 L 64.601562 36.839844 L 51.851562 36.839844 C 51.652344 36.839844 51.460938 36.917969 51.320312 37.058594 L 50.039062 38.339844 L 40.160156 38.339844 L 38.882812 37.058594 C 38.742188 36.917969 38.550781 36.839844 38.351562 36.839844 L 25.601562 36.839844 Z M 25.601562 42.839844 L 64.601562 42.839844 C 66.257812 42.839844 67.601562 41.496094 67.601562 39.839844 L 67.601562 37.589844 C 67.601562 37.175781 67.265625 36.839844 66.851562 36.839844 L 66.101562 36.839844 L 66.101562 5.339844 C 66.101562 3.6875 64.757812 2.339844 63.101562 2.339844 L 27.101562 2.339844 C 25.445312 2.339844 24.101562 3.6875 24.101562 5.339844 L 24.101562 36.839844 L 23.351562 36.839844 C 22.9375 36.839844 22.601562 37.175781 22.601562 37.589844 L 22.601562 39.839844 C 22.601562 41.496094 23.945312 42.839844 25.601562 42.839844"/></g><path fill="#100F0D" d="M 31.601562 8.339844 L 30.101562 8.339844 L 30.101562 9.839844 L 31.601562 9.839844 L 31.601562 8.339844"/><path fill="#100F0D" d="M 34.601562 8.339844 L 33.101562 8.339844 L 33.101562 9.839844 L 34.601562 9.839844 L 34.601562 8.339844"/><path fill="#100F0D" d="M 37.601562 8.339844 L 36.101562 8.339844 L 36.101562 9.839844 L 37.601562 9.839844 L 37.601562 8.339844"/><path fill="#100F0D" d="M 36.851562 19.976562 L 39.445312 21.089844 L 36.851562 22.203125 Z M 35.6875 23.96875 C 35.8125 24.050781 35.957031 24.089844 36.101562 24.089844 C 36.199219 24.089844 36.304688 24.070312 36.398438 24.027344 L 41.648438 21.777344 C 41.921875 21.660156 42.101562 21.390625 42.101562 21.089844 C 42.101562 20.789062 41.921875 20.519531 41.648438 20.402344 L 36.398438 18.152344 C 36.164062 18.050781 35.898438 18.074219 35.6875 18.214844 C 35.476562 18.355469 35.351562 18.589844 35.351562 18.839844 L 35.351562 23.339844 C 35.351562 23.59375 35.476562 23.828125 35.6875 23.96875"/><path fill="#100F0D" d="M 28.601562 30.839844 L 28.601562 12.839844 L 61.601562 12.839844 L 61.601562 30.839844 C 61.601562 31.667969 60.925781 32.339844 60.101562 32.339844 L 59.273438 32.339844 L 58.59375 26.257812 C 58.554688 25.878906 58.234375 25.589844 57.851562 25.589844 L 57.851562 24.265625 L 59.273438 21.425781 C 59.40625 21.15625 59.367188 20.832031 59.167969 20.601562 L 54.667969 15.351562 C 54.386719 15.019531 53.816406 15.019531 53.53125 15.351562 L 49.03125 20.601562 C 48.835938 20.832031 48.796875 21.15625 48.929688 21.425781 L 50.351562 24.265625 L 50.351562 25.589844 C 49.96875 25.589844 49.648438 25.878906 49.605469 26.257812 L 48.929688 32.339844 L 30.101562 32.339844 C 29.273438 32.339844 28.601562 31.667969 28.601562 30.839844 Z M 30.101562 6.839844 L 60.101562 6.839844 C 60.925781 6.839844 61.601562 7.515625 61.601562 8.339844 L 61.601562 11.339844 L 28.601562 11.339844 L 28.601562 8.339844 C 28.601562 7.515625 29.273438 6.839844 30.101562 6.839844 Z M 50.4375 32.339844 L 51.023438 27.089844 L 57.179688 27.089844 L 57.347656 28.589844 L 52.601562 28.589844 L 52.601562 30.089844 L 57.515625 30.089844 L 57.761719 32.339844 Z M 51.773438 23.753906 L 50.496094 21.203125 L 54.101562 16.992188 L 57.707031 21.203125 L 56.429688 23.753906 C 56.378906 23.859375 56.351562 23.972656 56.351562 24.089844 L 56.351562 25.589844 L 54.851562 25.589844 L 54.851562 22.589844 L 53.351562 22.589844 L 53.351562 25.589844 L 51.851562 25.589844 L 51.851562 24.089844 C 51.851562 23.972656 51.824219 23.859375 51.773438 23.753906 Z M 58.601562 33.839844 L 60.101562 33.839844 C 61.757812 33.839844 63.101562 32.496094 63.101562 30.839844 L 63.101562 8.339844 C 63.101562 6.6875 61.757812 5.339844 60.101562 5.339844 L 30.101562 5.339844 C 28.445312 5.339844 27.101562 6.6875 27.101562 8.339844 L 27.101562 30.839844 C 27.101562 32.496094 28.445312 33.839844 30.101562 33.839844 L 58.601562 33.839844"/><path fill="#100F0D" d="M 54.851562 19.589844 L 53.351562 19.589844 L 53.351562 21.089844 L 54.851562 21.089844 L 54.851562 19.589844"/><path fill="#100F0D" d="M 45.101562 25.589844 L 32.351562 25.589844 L 32.351562 16.589844 L 45.101562 16.589844 Z M 45.851562 15.089844 L 31.601562 15.089844 C 31.1875 15.089844 30.851562 15.429688 30.851562 15.839844 L 30.851562 26.339844 C 30.851562 26.753906 31.1875 27.089844 31.601562 27.089844 L 45.851562 27.089844 C 46.265625 27.089844 46.601562 26.753906 46.601562 26.339844 L 46.601562 15.839844 C 46.601562 15.429688 46.265625 15.089844 45.851562 15.089844"/><path fill="#100F0D" d="M 30.851562 30.089844 L 32.351562 30.089844 L 32.351562 28.589844 L 30.851562 28.589844 L 30.851562 30.089844"/><path fill="#100F0D" d="M 33.851562 30.089844 L 46.601562 30.089844 L 46.601562 28.589844 L 33.851562 28.589844 L 33.851562 30.089844"/></svg>