<svg xmlns="http://www.w3.org/2000/svg" width="90" viewBox="0 0 90 45" height="45" version="1.0"><defs><clipPath id="a"><path d="M 45 2.773438 L 61 2.773438 L 61 21 L 45 21 Z M 45 2.773438"/></clipPath><clipPath id="b"><path d="M 29 2.773438 L 44 2.773438 L 44 21 L 29 21 Z M 29 2.773438"/></clipPath><clipPath id="c"><path d="M 29 24 L 44 24 L 44 42.523438 L 29 42.523438 Z M 29 24"/></clipPath><clipPath id="d"><path d="M 45 24 L 61 24 L 61 42.523438 L 45 42.523438 Z M 45 24"/></clipPath><clipPath id="e"><path d="M 25.273438 21 L 65.023438 21 L 65.023438 24 L 25.273438 24 Z M 25.273438 21"/></clipPath></defs><g clip-path="url(#a)"><path fill="#040606" d="M 45.300781 19.945312 C 45.527344 20.386719 45.976562 20.664062 46.472656 20.664062 L 48.226562 20.664062 C 48.652344 20.664062 49.054688 20.457031 49.300781 20.105469 L 52.761719 15.226562 L 56.234375 20.105469 C 56.480469 20.457031 56.886719 20.664062 57.308594 20.664062 L 59.066406 20.664062 C 59.5625 20.664062 60.007812 20.386719 60.238281 19.945312 C 60.46875 19.503906 60.429688 18.976562 60.140625 18.570312 L 55.269531 11.714844 L 60.140625 4.867188 C 60.429688 4.460938 60.46875 3.933594 60.238281 3.492188 C 60.007812 3.050781 59.5625 2.773438 59.066406 2.773438 L 57.308594 2.773438 C 56.886719 2.773438 56.480469 2.980469 56.238281 3.332031 L 52.773438 8.210938 L 49.304688 3.332031 C 49.054688 2.980469 48.652344 2.773438 48.226562 2.773438 L 46.472656 2.773438 C 45.976562 2.773438 45.527344 3.050781 45.300781 3.492188 C 45.070312 3.933594 45.109375 4.460938 45.394531 4.867188 L 46.011719 5.734375 C 46.222656 6.03125 46.636719 6.101562 46.9375 5.886719 C 47.234375 5.675781 47.304688 5.261719 47.089844 4.964844 L 46.472656 4.101562 L 48.222656 4.097656 L 51.691406 8.976562 C 51.941406 9.324219 52.339844 9.535156 52.769531 9.535156 C 53.195312 9.535156 53.597656 9.324219 53.84375 8.976562 L 57.308594 4.101562 L 59.058594 4.101562 L 54.191406 10.949219 C 53.863281 11.410156 53.863281 12.027344 54.191406 12.488281 L 59.066406 19.335938 L 57.316406 19.339844 L 53.84375 14.460938 C 53.597656 14.113281 53.195312 13.902344 52.769531 13.902344 C 52.339844 13.902344 51.941406 14.113281 51.695312 14.460938 L 48.226562 19.335938 L 46.476562 19.335938 L 51.347656 12.488281 C 51.675781 12.027344 51.675781 11.410156 51.347656 10.949219 L 48.449219 6.875 C 48.238281 6.578125 47.824219 6.507812 47.527344 6.722656 C 47.226562 6.929688 47.15625 7.34375 47.371094 7.644531 L 50.269531 11.722656 L 45.394531 18.570312 C 45.109375 18.976562 45.070312 19.503906 45.300781 19.945312"/></g><g clip-path="url(#b)"><path fill="#040606" d="M 33.226562 2.773438 L 31.238281 2.773438 C 30.507812 2.773438 29.914062 3.371094 29.914062 4.101562 L 29.914062 14.039062 C 29.914062 15.863281 30.675781 17.625 32.007812 18.871094 C 33.25 20.035156 34.84375 20.664062 36.53125 20.664062 C 36.679688 20.664062 36.828125 20.65625 36.976562 20.648438 C 40.445312 20.425781 43.164062 17.429688 43.164062 13.832031 L 43.164062 9.398438 C 43.164062 9.035156 42.863281 8.738281 42.5 8.738281 C 42.136719 8.738281 41.835938 9.035156 41.835938 9.398438 L 41.835938 13.832031 C 41.835938 16.734375 39.667969 19.144531 36.890625 19.324219 C 35.40625 19.425781 33.992188 18.917969 32.914062 17.90625 C 31.832031 16.890625 31.238281 15.519531 31.238281 14.039062 L 31.238281 4.101562 L 33.226562 4.101562 L 33.226562 13.921875 C 33.226562 15.679688 34.539062 17.175781 36.214844 17.335938 C 37.148438 17.421875 38.078125 17.113281 38.765625 16.488281 C 39.453125 15.863281 39.851562 14.96875 39.851562 14.039062 L 39.851562 4.101562 L 41.835938 4.101562 L 41.835938 6.75 C 41.835938 7.113281 42.136719 7.414062 42.5 7.414062 C 42.863281 7.414062 43.164062 7.113281 43.164062 6.75 L 43.164062 4.101562 C 43.164062 3.371094 42.566406 2.773438 41.835938 2.773438 L 39.851562 2.773438 C 39.121094 2.773438 38.523438 3.371094 38.523438 4.101562 L 38.523438 14.039062 C 38.523438 14.597656 38.285156 15.132812 37.875 15.507812 C 37.457031 15.890625 36.914062 16.066406 36.339844 16.015625 C 35.335938 15.921875 34.550781 15.003906 34.550781 13.921875 L 34.550781 4.101562 C 34.550781 3.371094 33.953125 2.773438 33.226562 2.773438"/></g><g clip-path="url(#c)"><path fill="#040606" d="M 41.835938 24.636719 L 39.851562 24.636719 C 39.121094 24.636719 38.523438 25.234375 38.523438 25.960938 L 38.523438 35.898438 C 38.523438 36.457031 38.285156 36.996094 37.875 37.371094 C 37.457031 37.75 36.914062 37.929688 36.339844 37.878906 C 35.335938 37.785156 34.550781 36.867188 34.550781 35.785156 L 34.550781 25.960938 C 34.550781 25.234375 33.953125 24.636719 33.226562 24.636719 L 31.238281 24.636719 C 30.507812 24.636719 29.914062 25.234375 29.914062 25.960938 L 29.914062 35.898438 C 29.914062 37.722656 30.675781 39.488281 32.007812 40.734375 C 33.25 41.898438 34.84375 42.523438 36.53125 42.523438 C 36.679688 42.523438 36.828125 42.519531 36.976562 42.507812 C 40.445312 42.285156 43.164062 39.292969 43.164062 35.695312 L 43.164062 31.261719 C 43.164062 30.898438 42.863281 30.601562 42.5 30.601562 C 42.136719 30.601562 41.835938 30.898438 41.835938 31.261719 L 41.835938 35.695312 C 41.835938 38.597656 39.667969 41.007812 36.890625 41.1875 C 35.40625 41.289062 33.992188 40.78125 32.914062 39.765625 C 31.832031 38.753906 31.238281 37.378906 31.238281 35.898438 L 31.238281 25.960938 L 33.226562 25.960938 L 33.226562 35.785156 C 33.226562 37.539062 34.539062 39.039062 36.214844 39.195312 C 37.148438 39.289062 38.078125 38.976562 38.765625 38.351562 C 39.453125 37.722656 39.851562 36.832031 39.851562 35.898438 L 39.851562 25.960938 L 41.835938 25.960938 L 41.835938 28.613281 C 41.835938 28.976562 42.136719 29.273438 42.5 29.273438 C 42.863281 29.273438 43.164062 28.976562 43.164062 28.613281 L 43.164062 25.960938 C 43.164062 25.234375 42.566406 24.636719 41.835938 24.636719"/></g><g clip-path="url(#d)"><path fill="#040606" d="M 59.0625 24.636719 L 47.136719 24.636719 C 46.40625 24.636719 45.8125 25.234375 45.8125 25.960938 L 45.8125 27.949219 C 45.8125 28.679688 46.40625 29.273438 47.136719 29.273438 L 51.113281 29.273438 L 51.113281 37.886719 L 47.136719 37.886719 C 46.40625 37.886719 45.8125 38.484375 45.8125 39.210938 L 45.8125 41.199219 C 45.8125 41.929688 46.40625 42.523438 47.136719 42.523438 L 59.0625 42.523438 C 59.792969 42.523438 60.386719 41.929688 60.386719 41.199219 L 60.386719 39.210938 C 60.386719 38.484375 59.792969 37.886719 59.0625 37.886719 L 55.085938 37.886719 L 55.085938 33.25 C 55.085938 32.886719 54.789062 32.585938 54.425781 32.585938 C 54.058594 32.585938 53.761719 32.886719 53.761719 33.25 L 53.761719 37.886719 C 53.761719 38.617188 54.359375 39.210938 55.085938 39.210938 L 59.0625 39.210938 L 59.0625 41.199219 L 47.136719 41.199219 L 47.136719 39.210938 L 51.113281 39.210938 C 51.84375 39.210938 52.4375 38.617188 52.4375 37.886719 L 52.4375 29.273438 C 52.4375 28.546875 51.84375 27.949219 51.113281 27.949219 L 47.136719 27.949219 L 47.136719 25.960938 L 59.0625 25.960938 L 59.0625 27.949219 L 55.085938 27.949219 C 54.359375 27.949219 53.761719 28.546875 53.761719 29.273438 L 53.761719 30.601562 C 53.761719 30.964844 54.058594 31.261719 54.425781 31.261719 C 54.789062 31.261719 55.085938 30.964844 55.085938 30.601562 L 55.085938 29.273438 L 59.0625 29.273438 C 59.792969 29.273438 60.386719 28.679688 60.386719 27.949219 L 60.386719 25.960938 C 60.386719 25.234375 59.792969 24.636719 59.0625 24.636719"/></g><g clip-path="url(#e)"><path fill="#040606" d="M 64.363281 21.988281 L 25.9375 21.988281 C 25.574219 21.988281 25.273438 22.285156 25.273438 22.648438 C 25.273438 23.015625 25.574219 23.3125 25.9375 23.3125 L 64.363281 23.3125 C 64.726562 23.3125 65.023438 23.015625 65.023438 22.648438 C 65.023438 22.285156 64.726562 21.988281 64.363281 21.988281"/></g></svg>