<svg xmlns="http://www.w3.org/2000/svg" xmlns:xlink="http://www.w3.org/1999/xlink" width="500" zoomAndPan="magnify" viewBox="0 0 375 374.999991" height="500" preserveAspectRatio="xMidYMid meet" version="1.0"><defs><clipPath id="f7e975909a"><path d="M 176 93 L 362 93 L 362 321 L 176 321 Z M 176 93 " clip-rule="nonzero"/></clipPath><clipPath id="2eaeadc951"><path d="M 83.625 7.824219 L 386.785156 130.386719 L 291.207031 366.796875 L -11.953125 244.234375 Z M 83.625 7.824219 " clip-rule="nonzero"/></clipPath><clipPath id="beabcf2f56"><path d="M 83.625 7.824219 L 386.785156 130.386719 L 291.207031 366.796875 L -11.953125 244.234375 Z M 83.625 7.824219 " clip-rule="nonzero"/></clipPath><clipPath id="f172ae5e32"><path d="M 83.625 7.824219 L 386.785156 130.386719 L 291.207031 366.796875 L -11.953125 244.234375 Z M 83.625 7.824219 " clip-rule="nonzero"/></clipPath><clipPath id="030e6a13c9"><path d="M 19 29 L 205 29 L 205 258 L 19 258 Z M 19 29 " clip-rule="nonzero"/></clipPath><clipPath id="bc0fdfa7c7"><path d="M 83.625 7.824219 L 386.785156 130.386719 L 291.207031 366.796875 L -11.953125 244.234375 Z M 83.625 7.824219 " clip-rule="nonzero"/></clipPath><clipPath id="ce392ecda7"><path d="M 83.625 7.824219 L 386.785156 130.386719 L 291.207031 366.796875 L -11.953125 244.234375 Z M 83.625 7.824219 " clip-rule="nonzero"/></clipPath><clipPath id="10343432d9"><path d="M 83.625 7.824219 L 386.785156 130.386719 L 291.207031 366.796875 L -11.953125 244.234375 Z M 83.625 7.824219 " clip-rule="nonzero"/></clipPath></defs><rect x="-37.5" width="450" fill="#ffffff" y="-37.499999" height="449.999989" fill-opacity="1"/><rect x="-37.5" width="450" fill="#ffffff" y="-37.499999" height="449.999989" fill-opacity="1"/><rect x="-37.5" width="450" fill="#ffffff" y="-37.499999" height="449.999989" fill-opacity="1"/><g clip-path="url(#f7e975909a)"><g clip-path="url(#2eaeadc951)"><g clip-path="url(#beabcf2f56)"><g clip-path="url(#f172ae5e32)"><path fill="#318ba2" d="M 356.648438 145.019531 C 349.175781 126.414062 335.953125 112.792969 317.105469 104.0625 C 313.792969 102.03125 310.324219 100.175781 306.605469 98.671875 C 285.824219 90.273438 263.429688 92.558594 245.375 102.871094 C 235.761719 107.875 228.1875 114.730469 222.730469 123.519531 C 219.746094 127.796875 217.140625 132.433594 215.101562 137.476562 C 200.550781 173.464844 217.9375 214.425781 253.925781 228.976562 C 268.59375 234.90625 284.046875 235.445312 298.242188 231.695312 C 297.933594 232.519531 297.746094 233.324219 297.402344 234.179688 C 283.4375 268.71875 243.152344 292.585938 176.539062 305.828125 L 179.367188 320.808594 C 272.871094 304.613281 330.835938 268.777344 353.269531 213.285156 C 363.566406 187.824219 364.675781 165.066406 356.648438 145.019531 Z M 356.648438 145.019531 " fill-opacity="1" fill-rule="nonzero"/></g></g></g></g><g clip-path="url(#030e6a13c9)"><g clip-path="url(#bc0fdfa7c7)"><g clip-path="url(#ce392ecda7)"><g clip-path="url(#10343432d9)"><path fill="#318ba2" d="M 158.699219 39.957031 C 155.492188 38.019531 152.140625 36.222656 148.546875 34.769531 C 112.558594 20.222656 71.585938 37.597656 57.039062 73.578125 C 42.496094 109.550781 59.878906 150.523438 95.867188 165.074219 C 110.917969 171.160156 126.832031 171.59375 141.355469 167.476562 C 140.992188 168.53125 140.722656 169.554688 140.277344 170.652344 C 126.3125 205.195312 86.035156 229.066406 19.414062 242.304688 L 22.246094 257.289062 C 115.742188 241.089844 173.714844 205.253906 196.148438 149.761719 C 206.445312 124.289062 207.574219 101.523438 199.542969 81.488281 C 191.898438 62.464844 178.238281 48.65625 158.699219 39.957031 Z M 158.699219 39.957031 " fill-opacity="1" fill-rule="nonzero"/></g></g></g></g></svg>