<svg xmlns="http://www.w3.org/2000/svg" xmlns:xlink="http://www.w3.org/1999/xlink" width="800" zoomAndPan="magnify" viewBox="0 0 600 149.999998" height="200" preserveAspectRatio="xMidYMid meet" version="1.0"><defs><clipPath id="6ccb03e8ef"><path d="M 3 21.820312 L 116 21.820312 L 116 128.320312 L 3 128.320312 Z M 3 21.820312 " clip-rule="nonzero"/></clipPath><clipPath id="a26c464115"><path d="M 124 21.820312 L 237 21.820312 L 237 128.320312 L 124 128.320312 Z M 124 21.820312 " clip-rule="nonzero"/></clipPath><clipPath id="e7e50e0dea"><path d="M 245 21.820312 L 358 21.820312 L 358 128.320312 L 245 128.320312 Z M 245 21.820312 " clip-rule="nonzero"/></clipPath><clipPath id="d37e234ba8"><path d="M 366 21.820312 L 479 21.820312 L 479 128.320312 L 366 128.320312 Z M 366 21.820312 " clip-rule="nonzero"/></clipPath><clipPath id="6d0f328c96"><path d="M 487 21.820312 L 600 21.820312 L 600 128.320312 L 487 128.320312 Z M 487 21.820312 " clip-rule="nonzero"/></clipPath></defs><rect x="-60" width="720" fill="#ffffff" y="-15" height="179.999997" fill-opacity="1"/><rect x="-60" width="720" fill="#ffffff" y="-15" height="179.999997" fill-opacity="1"/><rect x="-60" width="720" fill="#ffffff" y="-15" height="179.999997" fill-opacity="1"/><g clip-path="url(#6ccb03e8ef)"><path fill="#fbb03b" d="M 59.363281 21.808594 L 72.625 62.5 L 115.542969 62.5 L 80.824219 87.640625 L 94.085938 128.324219 L 59.363281 103.179688 L 24.640625 128.324219 L 37.90625 87.640625 L 3.183594 62.5 L 46.101562 62.5 L 59.363281 21.808594 " fill-opacity="1" fill-rule="nonzero"/></g><g clip-path="url(#a26c464115)"><path fill="#fbb03b" d="M 180.363281 21.808594 L 193.628906 62.5 L 236.546875 62.5 L 201.824219 87.640625 L 215.085938 128.324219 L 180.363281 103.179688 L 145.640625 128.324219 L 158.90625 87.640625 L 124.183594 62.5 L 167.101562 62.5 L 180.363281 21.808594 " fill-opacity="1" fill-rule="nonzero"/></g><g clip-path="url(#e7e50e0dea)"><path fill="#fbb03b" d="M 301.363281 21.808594 L 314.628906 62.5 L 357.546875 62.5 L 322.824219 87.640625 L 336.089844 128.324219 L 301.363281 103.179688 L 266.644531 128.324219 L 279.90625 87.640625 L 245.183594 62.5 L 288.101562 62.5 L 301.363281 21.808594 " fill-opacity="1" fill-rule="nonzero"/></g><g clip-path="url(#d37e234ba8)"><path fill="#fbb03b" d="M 422.367188 21.808594 L 435.625 62.5 L 478.542969 62.5 L 443.828125 87.640625 L 457.085938 128.324219 L 422.367188 103.179688 L 387.644531 128.324219 L 400.910156 87.640625 L 366.183594 62.5 L 409.101562 62.5 L 422.367188 21.808594 " fill-opacity="1" fill-rule="nonzero"/></g><g clip-path="url(#6d0f328c96)"><path fill="#fbb03b" d="M 543.363281 21.808594 L 556.628906 62.5 L 599.546875 62.5 L 564.824219 87.640625 L 578.089844 128.324219 L 543.363281 103.179688 L 508.640625 128.324219 L 521.90625 87.640625 L 487.1875 62.5 L 530.105469 62.5 L 543.363281 21.808594 " fill-opacity="1" fill-rule="nonzero"/></g></svg>